<svg height="512pt" viewBox="-45 0 512 512" width="512pt" xmlns="http://www.w3.org/2000/svg"><path d="m189.238281 424.171875h-58.902343c-8.285157 0-15.003907 6.71875-15.003907 15.007813 0 8.285156 6.71875 15.003906 15.003907 15.003906h58.902343c8.285157 0 15.003907-6.71875 15.003907-15.003906 0-8.289063-6.71875-15.007813-15.003907-15.007813zm0 0"/><path d="m353.28125 133.253906h-33.703125v-75.535156c-.003906-31.824219-25.894531-57.71875-57.722656-57.71875h-204.136719c-31.824219 0-57.71875 25.894531-57.71875 57.71875v396.5625c0 31.824219 25.894531 57.71875 57.71875 57.71875h204.136719c31.828125 0 57.71875-25.894531 57.71875-57.71875v-128.183594h33.707031c37.738281 0 68.441406-30.703125 68.441406-68.445312v-55.953125c.003906-37.738281-30.703125-68.445313-68.441406-68.445313zm-148.847656-103.242187v14.839843h-89.292969v-14.839843zm85.128906 424.269531c0 15.277344-12.429688 27.707031-27.707031 27.707031h-204.136719c-15.277344 0-27.707031-12.429687-27.707031-27.707031v-396.5625c0-15.277344 12.429687-27.707031 27.707031-27.707031h27.410156v16.0625c0 15.875 12.914063 28.789062 28.789063 28.789062h91.742187c15.871094 0 28.785156-12.914062 28.785156-28.789062v-16.0625h27.410157c15.277343 0 27.707031 12.429687 27.707031 27.707031v75.535156h-76.335938c-37.742187 0-68.445312 30.703125-68.445312 68.445313v132.902343c0 6.886719 3.796875 13.136719 9.90625 16.3125 2.679688 1.394532 5.589844 2.082032 8.488281 2.082032 3.222657 0 6.429688-.851563 9.289063-2.53125l48.265625-24.367188h68.832031zm102.152344-196.628906c0 21.195312-17.242188 38.433594-38.433594 38.433594h-135.394531c-3.296875 0-6.480469.871093-9.300781 2.523437l-33.792969 17.0625v-113.972656c0-21.191407 17.242187-38.433594 38.433593-38.433594h140.054688c21.191406 0 38.433594 17.242187 38.433594 38.433594zm0 0"/><path d="m348.90625 186.878906h-131.304688c-8.285156 0-15.003906 6.71875-15.003906 15.003906 0 8.289063 6.71875 15.007813 15.003906 15.007813h131.304688c8.285156 0 15.003906-6.71875 15.003906-15.007813 0-8.285156-6.71875-15.003906-15.003906-15.003906zm0 0"/><path d="m348.90625 238.121094h-65.652344c-8.289062 0-15.003906 6.71875-15.003906 15.003906 0 8.289062 6.714844 15.007812 15.003906 15.007812h65.652344c8.285156 0 15.003906-6.71875 15.003906-15.007812 0-8.285156-6.71875-15.003906-15.003906-15.003906zm0 0"/></svg>